HIERARCHY
ROOT Hips
{
    OFFSET 0.000000 0.000000 0.000000
    CHANNELS 6 Xposition Yposition Zposition Zrotation Xrotation Yrotation
    JOINT Spine
    {
        OFFSET -0.000000 73.129562 0.000000
        CHANNELS 3 Zrotation Xrotation Yrotation
        JOINT Spine1
        {
            OFFSET -0.000000 165.477310 0.000000
            CHANNELS 3 Zrotation Xrotation Yrotation
            JOINT Neck
            {
                OFFSET -0.000000 183.313782 0.000000
                CHANNELS 3 Zrotation Xrotation Yrotation
                JOINT Head
                {
                    OFFSET -0.000000 138.232712 17.836477
                    CHANNELS 3 Zrotation Xrotation Yrotation
                    End Site
                    {
                        OFFSET -0.000000 178.364777 0.000000
                    }
                }
            }
            JOINT LeftShoulder
            {
                OFFSET 35.598560 149.571365 -3.890343
                CHANNELS 3 Zrotation Xrotation Yrotation
                JOINT LeftArm
                {
                    OFFSET 103.175423 0.000000 0.000000
                    CHANNELS 3 Zrotation Xrotation Yrotation
                    JOINT LeftForeArm
                    {
                        OFFSET 267.561951 0.000000 0.000000
                        CHANNELS 3 Zrotation Xrotation Yrotation
                        JOINT LeftHand
                        {
                            OFFSET 239.300095 0.000000 0.000000
                            CHANNELS 3 Zrotation Xrotation Yrotation
                            End Site
                            {
                                OFFSET 133.773590 0.000000 0.000000
                            }
                        }
                    }
                }
            }
            JOINT RightShoulder
            {
                OFFSET -35.671310 149.571365 -3.890343
                CHANNELS 3 Zrotation Xrotation Yrotation
                JOINT RightArm
                {
                    OFFSET -103.175423 0.000000 0.000000
                    CHANNELS 3 Zrotation Xrotation Yrotation
                    JOINT RightForeArm
                    {
                        OFFSET -267.561951 0.000000 0.000000
                        CHANNELS 3 Zrotation Xrotation Yrotation
                        JOINT RightHand
                        {
                            OFFSET -239.300095 0.000000 0.000000
                            CHANNELS 3 Zrotation Xrotation Yrotation
                            End Site
                            {
                                OFFSET -133.773590 0.000000 0.000000
                            }
                        }
                    }
                }
            }
        }
    }
    JOINT LeftUpLeg
    {
        OFFSET 89.182388 0.000000 0.000000
        CHANNELS 3 Zrotation Xrotation Yrotation
        JOINT LeftLeg
        {
            OFFSET -0.000000 -464.167633 0.000000
            CHANNELS 3 Zrotation Xrotation Yrotation
            JOINT LeftFoot
            {
                OFFSET -0.000000 -372.878357 0.000000
                CHANNELS 3 Zrotation Xrotation Yrotation
                JOINT LeftToeBase
                {
                    OFFSET -0.000000 -57.968548 133.773590
                    CHANNELS 3 Zrotation Xrotation Yrotation
                    End Site
                    {
                        OFFSET -0.000000 0.000000 35.672955
                    }
                }
            }
        }
    }
    JOINT RightUpLeg
    {
        OFFSET -89.182388 0.000000 0.000000
        CHANNELS 3 Zrotation Xrotation Yrotation
        JOINT RightLeg
        {
            OFFSET -0.000000 -464.167633 0.000000
            CHANNELS 3 Zrotation Xrotation Yrotation
            JOINT RightFoot
            {
                OFFSET -0.000000 -372.878357 0.000000
                CHANNELS 3 Zrotation Xrotation Yrotation
                JOINT RightToeBase
                {
                    OFFSET -0.000000 -57.968548 133.773590
                    CHANNELS 3 Zrotation Xrotation Yrotation
                    End Site
                    {
                        OFFSET -0.000000 0.000000 35.672955
                    }
                }
            }
        }
    }
}
MOTION
Frames:    8
Frame Time:    0.008333
-23.794382    837.367188    686.940308    -3.545072    4.588085    85.036690    1.220710    -9.668674    -1.115397    7.200410    0.949784    -0.454017    -18.298599    19.258352    -15.593887    25.576130    -2.951768    -24.133596    12.709207    -5.724578    -8.679320    -4.533200    17.369513    -0.173261    12.605878    -17.841776    4.722573    -43.500736    -12.405107    -15.323052    -5.017629    12.432576    -5.097410    45.064316    71.131088    30.558817    -17.402901    -16.409334    9.911766    11.487217    -14.219956    7.445061    -6.985565    -6.191975    -0.282941    -4.005877    11.848451    1.771388    8.544448    -8.955428    25.647865    0.000000    0.000000    0.000000    -7.586832    -10.897595    -0.095569    5.792305    24.871265    -7.381193    -1.046893    -21.549847    -9.093865    0.000000    0.000000    0.000000    
-23.493284    837.446838    687.521484    -3.537971    4.562943    85.018356    1.222063    -9.703041    -1.125983    7.219588    0.960983    -0.458474    -18.338423    19.239717    -15.582823    25.651472    -2.972723    -24.134314    12.740241    -5.801192    -8.693880    -4.507079    17.100183    -0.067986    12.492364    -17.672314    4.661791    -43.364357    -12.307932    -15.154178    -5.031025    12.429392    -5.075898    45.186481    70.984612    30.394026    -17.318619    -16.310022    9.987179    11.402273    -14.113820    7.519286    -6.925571    -6.155718    -0.329571    -4.026284    11.862873    1.795514    8.533705    -8.979000    25.717588    0.000000    0.000000    0.000000    -7.566315    -10.801621    -0.248252    5.821321    24.726309    -7.422662    -1.015712    -21.523018    -8.895632    0.000000    0.000000    0.000000    
-23.192736    837.541748    688.016174    -3.515107    4.554670    85.007210    1.205124    -9.689022    -1.142666    7.245344    0.928039    -0.461814    -18.340115    19.256817    -15.594146    25.659710    -3.043205    -24.133884    12.762792    -5.763942    -8.636497    -4.456770    16.921577    -0.073682    12.439565    -17.568365    4.681779    -43.342434    -12.222634    -15.108875    -5.026729    12.448817    -5.076190    45.216095    70.884537    30.305582    -17.333731    -16.220804    10.012206    11.517428    -14.008424    7.547482    -6.907379    -6.088303    -0.375630    -3.991619    11.811290    1.807802    8.508282    -8.953850    25.750572    0.000000    0.000000    0.000000    -7.572533    -10.699718    -0.504864    5.815930    24.615080    -7.368610    -0.974215    -21.514740    -8.743920    0.000000    0.000000    0.000000    
-22.922705    837.634338    688.564941    -3.513958    4.515755    85.012611    1.199435    -9.768332    -1.127737    7.305867    0.962809    -0.459207    -18.332821    19.387733    -15.623466    25.675236    -3.205048    -24.146921    12.751760    -5.705445    -8.791962    -4.462337    16.717615    0.081714    12.415275    -17.449360    4.690008    -43.262989    -12.147868    -15.019470    -5.016472    12.457659    -5.063460    45.504749    70.678429    29.949490    -17.298607    -16.216965    10.059520    11.376827    -14.005654    7.588335    -6.846776    -6.045644    -0.369024    -3.964001    11.751542    1.746442    8.536892    -8.915562    25.806992    0.000000    0.000000    0.000000    -7.561093    -10.609091    -0.677391    5.895593    24.476442    -7.406356    -0.974055    -21.464304    -8.587610    0.000000    0.000000    0.000000    
-22.675745    837.754395    689.066711    -3.509159    4.495527    85.026031    1.201443    -9.767655    -1.131709    7.323497    0.927189    -0.458405    -18.340189    19.393608    -15.645522    25.703922    -3.244619    -24.166220    12.786722    -5.719275    -8.783651    -4.459632    16.604815    0.101233    12.393873    -17.347597    4.687317    -43.243668    -12.069901    -14.957335    -5.000885    12.450051    -5.128309    45.368843    70.729881    30.031551    -17.359777    -16.266972    9.998255    11.498339    -14.053963    7.569430    -6.801496    -6.033840    -0.401412    -3.982768    11.800463    1.809754    8.518920    -8.931777    25.831863    0.000000    0.000000    0.000000    -7.571528    -10.522951    -0.915355    5.946919    24.357767    -7.348438    -0.973485    -21.413757    -8.468791    0.000000    0.000000    0.000000    
-22.453924    837.846802    689.552490    -3.499899    4.471671    85.056213    1.232216    -9.750192    -1.178668    7.304903    0.848574    -0.469683    -18.341198    19.393398    -15.632164    25.670073    -3.228578    -24.153337    12.796287    -5.667021    -8.752757    -4.392785    16.572697    0.124383    12.320621    -17.304996    4.671553    -43.163322    -12.055421    -14.902016    -5.038711    12.519287    -5.106627    45.679241    70.423676    29.727999    -17.296804    -16.222034    10.115235    11.507211    -14.000731    7.521665    -6.764384    -5.999615    -0.409115    -3.948534    11.794870    1.843899    8.471315    -8.941061    25.772696    0.000000    0.000000    0.000000    -7.575424    -10.444674    -1.189114    5.976724    24.270121    -7.301465    -0.873062    -21.381886    -8.319742    0.000000    0.000000    0.000000    
-22.273014    838.013062    690.104736    -3.492261    4.438797    85.081619    1.247566    -9.751620    -1.212926    7.313418    0.824610    -0.480215    -18.314594    19.379627    -15.657175    25.619925    -3.231668    -24.162773    12.807863    -5.641909    -8.723538    -4.335465    16.440617    0.147264    12.256834    -17.177547    4.630393    -43.084507    -11.963044    -14.817312    -5.042724    12.532575    -5.110267    45.812908    70.295052    29.576431    -17.326338    -16.182520    10.084230    11.547510    -13.952981    7.595297    -6.724694    -5.957621    -0.345458    -3.872412    11.754183    1.844804    8.411798    -8.903666    25.669682    0.000000    0.000000    0.000000    -7.565424    -10.346719    -1.356939    6.043210    24.128162    -7.292224    -0.834155    -21.316109    -8.219936    0.000000    0.000000    0.000000    
-22.015104    838.068359    690.657593    -3.488286    4.418426    85.129738    1.236314    -9.772422    -1.262572    7.342511    0.805899    -0.495434    -18.385050    19.391483    -15.642095    25.701365    -3.223884    -24.180454    12.812723    -5.630647    -8.722830    -4.303946    16.279610    0.208062    12.189938    -17.069586    4.542087    -43.002258    -11.888909    -14.725179    -5.046322    12.525544    -5.120941    46.221573    69.981339    29.104195    -17.208204    -16.151962    10.249330    11.528170    -13.911168    7.576248    -6.682195    -5.939637    -0.369953    -3.850877    11.766393    1.827497    8.406624    -8.911680    25.665503    0.000000    0.000000    0.000000    -7.573048    -10.277517    -1.617936    6.073695    24.073893    -7.301589    -0.747627    -21.304758    -7.995784    0.000000    0.000000    0.000000    
